<svg width="5" height="18" viewBox="0 0 5 18" fill="none" xmlns="http://www.w3.org/2000/svg">
<path fill-rule="evenodd" clip-rule="evenodd" d="M2.6665 14C1.56193 14 0.666504 14.8954 0.666504 16C0.666504 17.1046 1.56193 18 2.6665 18C3.77107 18 4.6665 17.1046 4.6665 16C4.6665 14.8954 3.77107 14 2.6665 14Z" fill="white"/>
<path fill-rule="evenodd" clip-rule="evenodd" d="M2.6665 7C1.56193 7 0.666504 7.89543 0.666504 9C0.666504 10.1046 1.56193 11 2.6665 11C3.77107 11 4.6665 10.1046 4.6665 9C4.6665 7.89543 3.77107 7 2.6665 7Z" fill="white"/>
<path fill-rule="evenodd" clip-rule="evenodd" d="M2.6665 0C1.56193 0 0.666504 0.895432 0.666504 2C0.666504 3.10457 1.56193 4 2.6665 4C3.77107 4 4.6665 3.10457 4.6665 2C4.6665 0.895432 3.77107 0 2.6665 0Z" fill="white"/>
</svg>
